<svg xmlns="http://www.w3.org/2000/svg" xmlns:xlink="http://www.w3.org/1999/xlink" viewBox="0 0 450 165.62"><defs><style>.cls-1{fill:none;}.cls-2{clip-path:url(#clip-path);}.cls-3{fill:url(#linear-gradient);}.cls-4{fill:url(#linear-gradient-2);}.cls-5{fill:url(#linear-gradient-3);}.cls-6{fill:url(#linear-gradient-4);}.cls-7{fill:url(#linear-gradient-5);}.cls-8{fill:url(#linear-gradient-6);}.cls-9{fill:url(#linear-gradient-7);}.cls-10{fill:url(#linear-gradient-8);}.cls-11{fill:url(#linear-gradient-9);}.cls-12{fill:url(#linear-gradient-10);}.cls-13{fill:url(#linear-gradient-11);}.cls-14{fill:url(#linear-gradient-12);}.cls-15{fill:url(#linear-gradient-13);}.cls-16{fill:url(#linear-gradient-14);}.cls-17{fill:url(#linear-gradient-15);}.cls-18{fill:url(#linear-gradient-16);}.cls-19{fill:url(#linear-gradient-17);}.cls-20{fill:url(#linear-gradient-18);}.cls-21{fill:url(#linear-gradient-19);}.cls-22{fill:url(#linear-gradient-20);}.cls-23{fill:url(#linear-gradient-21);}.cls-24{fill:url(#linear-gradient-22);}.cls-25{fill:url(#linear-gradient-23);}.cls-26{fill:url(#linear-gradient-24);}.cls-27{fill:url(#linear-gradient-25);}.cls-28{fill:url(#linear-gradient-26);}.cls-29{fill:url(#linear-gradient-27);}.cls-30{fill:url(#linear-gradient-28);}.cls-31{fill:url(#linear-gradient-29);}.cls-32{fill:url(#linear-gradient-30);}.cls-33{fill:url(#linear-gradient-31);}.cls-34{fill:url(#linear-gradient-32);}.cls-35{fill:url(#linear-gradient-33);}.cls-36{fill:url(#linear-gradient-34);}.cls-37{fill:url(#linear-gradient-35);}.cls-38{fill:url(#linear-gradient-36);}.cls-39{fill:url(#linear-gradient-37);}.cls-40{fill:url(#linear-gradient-38);}.cls-41{fill:url(#linear-gradient-39);}.cls-42{fill:url(#linear-gradient-40);}.cls-43{fill:url(#linear-gradient-41);}.cls-44{fill:url(#linear-gradient-42);}.cls-45{fill:url(#linear-gradient-43);}.cls-46{fill:url(#linear-gradient-44);}.cls-47{fill:url(#linear-gradient-45);}.cls-48{fill:url(#linear-gradient-46);}.cls-49{fill:url(#linear-gradient-47);}.cls-50{fill:url(#linear-gradient-48);}.cls-51{fill:url(#linear-gradient-49);}.cls-52{fill:url(#linear-gradient-50);}.cls-53{fill:url(#linear-gradient-51);}.cls-54{fill:url(#linear-gradient-52);}.cls-55{fill:url(#linear-gradient-53);}.cls-56{fill:url(#linear-gradient-54);}.cls-57{fill:url(#linear-gradient-55);}.cls-58{fill:url(#linear-gradient-56);}.cls-59{fill:url(#linear-gradient-57);}.cls-60{fill:url(#linear-gradient-58);}.cls-61{fill:url(#linear-gradient-59);}.cls-62{fill:url(#linear-gradient-60);}.cls-63{fill:url(#linear-gradient-61);}.cls-64{fill:url(#linear-gradient-62);}.cls-65{fill:url(#linear-gradient-63);}.cls-66{fill:url(#linear-gradient-64);}.cls-67{fill:url(#linear-gradient-65);}.cls-68{fill:url(#linear-gradient-66);}.cls-69{fill:url(#linear-gradient-67);}.cls-70{fill:url(#linear-gradient-68);}.cls-71{fill:url(#linear-gradient-69);}.cls-72{fill:url(#linear-gradient-70);}.cls-73{fill:url(#linear-gradient-71);}.cls-74{fill:url(#linear-gradient-72);}.cls-75{fill:url(#linear-gradient-73);}.cls-76{fill:url(#linear-gradient-74);}.cls-77{fill:url(#linear-gradient-75);}.cls-78{fill:url(#linear-gradient-76);}.cls-79{fill:url(#linear-gradient-77);}.cls-80{fill:url(#linear-gradient-78);}.cls-81{fill:url(#linear-gradient-79);}.cls-82{fill:url(#linear-gradient-80);}.cls-83{fill:url(#linear-gradient-81);}.cls-84{fill:url(#linear-gradient-82);}.cls-85{fill:url(#linear-gradient-83);}.cls-86{fill:url(#linear-gradient-84);}.cls-87{fill:url(#linear-gradient-85);}.cls-88{fill:url(#linear-gradient-86);}.cls-89{fill:url(#linear-gradient-87);}.cls-90{fill:url(#linear-gradient-88);}.cls-91{fill:url(#linear-gradient-89);}.cls-92{fill:url(#linear-gradient-90);}.cls-93{fill:url(#linear-gradient-91);}.cls-94{fill:url(#linear-gradient-92);}.cls-95{fill:url(#linear-gradient-93);}.cls-96{fill:url(#linear-gradient-94);}.cls-97{fill:url(#linear-gradient-95);}.cls-98{fill:url(#linear-gradient-96);}.cls-99{fill:url(#linear-gradient-97);}.cls-100{fill:url(#linear-gradient-98);}.cls-101{fill:url(#linear-gradient-99);}.cls-102{fill:url(#linear-gradient-100);}.cls-103{fill:url(#linear-gradient-101);}.cls-104{fill:url(#linear-gradient-102);}.cls-105{fill:url(#linear-gradient-103);}.cls-106{fill:url(#linear-gradient-104);}.cls-107{fill:url(#linear-gradient-105);}.cls-108{fill:url(#linear-gradient-106);}.cls-109{fill:url(#linear-gradient-107);}.cls-110{fill:url(#linear-gradient-108);}.cls-111{fill:url(#linear-gradient-109);}.cls-112{fill:url(#linear-gradient-110);}.cls-113{fill:url(#linear-gradient-111);}.cls-114{fill:url(#linear-gradient-112);}.cls-115{fill:url(#linear-gradient-113);}.cls-116{fill:url(#linear-gradient-114);}.cls-117{fill:url(#linear-gradient-115);}.cls-118{fill:url(#linear-gradient-116);}.cls-119{fill:url(#linear-gradient-117);}.cls-120{fill:url(#linear-gradient-118);}.cls-121{fill:url(#linear-gradient-119);}</style><clipPath id="clip-path" transform="translate(0 -10.79)"><rect class="cls-1" width="450" height="153.52"/></clipPath><linearGradient id="linear-gradient" x1="332.2" y1="29.57" x2="332.2" y2="159.11" gradientUnits="userSpaceOnUse"><stop offset="0" stop-color="#bae84d"/><stop offset="0.09" stop-color="#afe03f"/><stop offset="0.25" stop-color="#91cd1a"/><stop offset="0.35" stop-color="#7dbf00"/><stop offset="0.56" stop-color="#569300"/><stop offset="0.76" stop-color="#377000"/><stop offset="0.87" stop-color="#2b6300"/></linearGradient><linearGradient id="linear-gradient-2" x1="241.22" y1="21.81" x2="241.22" y2="164.43" gradientTransform="translate(-139.72 46.19) rotate(-11.99)" gradientUnits="userSpaceOnUse"><stop offset="0.12" stop-color="#bae84d"/><stop offset="0.21" stop-color="#acde42"/><stop offset="0.38" stop-color="#87c324"/><stop offset="0.57" stop-color="#59a300"/><stop offset="0.68" stop-color="#458800"/><stop offset="0.87" stop-color="#215700"/></linearGradient><linearGradient id="linear-gradient-3" x1="303" y1="44.56" x2="303" y2="159.66" gradientTransform="matrix(1, 0, 0, 1, 0, 0)" xlink:href="#linear-gradient-2"/><linearGradient id="linear-gradient-4" x1="297.52" y1="30.21" x2="297.52" y2="159.11" gradientTransform="matrix(1, 0, 0, 1, 0, 0)" xlink:href="#linear-gradient-2"/><linearGradient id="linear-gradient-5" x1="440.41" y1="40.02" x2="440.41" y2="169.46" gradientTransform="translate(-29.62 30.48) rotate(-4.57)" xlink:href="#linear-gradient-2"/><linearGradient id="linear-gradient-6" x1="397.07" y1="50.4" x2="397.07" y2="162.5" gradientTransform="matrix(1, 0, 0, 1, 0, 0)" xlink:href="#linear-gradient-2"/><linearGradient id="linear-gradient-7" x1="-67.98" y1="617.96" x2="-54.17" y2="500.62" gradientTransform="translate(392.89 674.65) rotate(173.29)" xlink:href="#linear-gradient-2"/><linearGradient id="linear-gradient-8" x1="130.53" y1="16.32" x2="130.53" y2="133.3" gradientTransform="translate(-53.01 46.37) rotate(-4.18)" xlink:href="#linear-gradient-2"/><linearGradient id="linear-gradient-9" x1="56.91" y1="40.24" x2="56.91" y2="157.42" gradientTransform="matrix(1, 0, 0, 1, 0, 0)" xlink:href="#linear-gradient-2"/><linearGradient id="linear-gradient-10" x1="54.23" y1="22.16" x2="54.23" y2="159.85" gradientTransform="matrix(1, 0, 0, 1, 0, 0)" xlink:href="#linear-gradient-2"/><linearGradient id="linear-gradient-11" x1="258.92" y1="660.75" x2="274.49" y2="528.45" gradientTransform="translate(392.89 674.65) rotate(173.29)" xlink:href="#linear-gradient-2"/><linearGradient id="linear-gradient-12" x1="202.84" y1="-76.45" x2="202.84" y2="71.33" gradientTransform="matrix(1.11, -0.19, 0.15, 0.9, -137.68, 133.85)" gradientUnits="userSpaceOnUse"><stop offset="0" stop-color="#bae84d"/><stop offset="0.03" stop-color="#b0e140"/><stop offset="0.12" stop-color="#9ad224"/><stop offset="0.21" stop-color="#8ac810"/><stop offset="0.3" stop-color="#80c104"/><stop offset="0.39" stop-color="#7dbf00"/><stop offset="0.59" stop-color="#569300"/><stop offset="0.77" stop-color="#377000"/><stop offset="0.87" stop-color="#2b6300"/></linearGradient><linearGradient id="linear-gradient-13" x1="198.63" y1="631.44" x2="211.89" y2="518.83" gradientTransform="translate(437.23 603.44) rotate(163.04)" xlink:href="#linear-gradient-2"/><linearGradient id="linear-gradient-14" x1="384.11" y1="66.29" x2="384.11" y2="160.53" gradientUnits="userSpaceOnUse"><stop offset="0" stop-color="#bae84d"/><stop offset="0.12" stop-color="#ace03f"/><stop offset="0.34" stop-color="#89cd1a"/><stop offset="0.47" stop-color="#70bf00"/><stop offset="0.57" stop-color="#6bb800"/><stop offset="0.7" stop-color="#5da500"/><stop offset="0.85" stop-color="#458600"/><stop offset="1" stop-color="#2b6300"/></linearGradient><linearGradient id="linear-gradient-15" x1="383.05" y1="37.9" x2="383.05" y2="162.5" gradientUnits="userSpaceOnUse"><stop offset="0.12" stop-color="#bae84d"/><stop offset="0.21" stop-color="#acde42"/><stop offset="0.38" stop-color="#87c324"/><stop offset="0.57" stop-color="#59a300"/><stop offset="0.64" stop-color="#468900"/><stop offset="0.73" stop-color="#326d00"/><stop offset="0.81" stop-color="#255d00"/><stop offset="0.87" stop-color="#215700"/></linearGradient><linearGradient id="linear-gradient-16" x1="654.51" y1="90.03" x2="664.46" y2="6.63" gradientTransform="matrix(0.86, -0.5, 0.5, 0.86, -281, 341.73)" gradientUnits="userSpaceOnUse"><stop offset="0" stop-color="#94c912"/><stop offset="0.06" stop-color="#8dc60d"/><stop offset="0.23" stop-color="#81c103"/><stop offset="0.39" stop-color="#7dbf00"/><stop offset="0.5" stop-color="#77b900"/><stop offset="0.65" stop-color="#68a700"/><stop offset="0.82" stop-color="#4e8a00"/><stop offset="1" stop-color="#2b6300"/></linearGradient><linearGradient id="linear-gradient-17" x1="1529.34" y1="441.42" x2="1443.58" y2="645.62" gradientTransform="matrix(-0.73, -0.69, -0.69, 0.73, 1598.62, 699.45)" xlink:href="#linear-gradient-2"/><linearGradient id="linear-gradient-18" x1="1504.54" y1="431.01" x2="1418.78" y2="635.19" gradientTransform="matrix(-0.73, -0.69, -0.69, 0.73, 1598.62, 699.45)" xlink:href="#linear-gradient-2"/><linearGradient id="linear-gradient-19" x1="420.82" y1="61.92" x2="420.82" y2="162.5" gradientTransform="matrix(1, 0, 0, 1, 0, 0)" xlink:href="#linear-gradient-2"/><linearGradient id="linear-gradient-20" x1="368.34" y1="41.24" x2="368.34" y2="160.53" xlink:href="#linear-gradient"/><linearGradient id="linear-gradient-21" x1="559.07" y1="54.16" x2="559.07" y2="177.94" gradientTransform="matrix(1.25, -0.08, 0.06, 1, -269.86, 29.5)" gradientUnits="userSpaceOnUse"><stop offset="0.12" stop-color="#bbe505"/><stop offset="0.14" stop-color="#b7e205"/><stop offset="0.44" stop-color="#69ac02"/><stop offset="0.58" stop-color="#4b9701"/><stop offset="0.68" stop-color="#468b06"/><stop offset="0.85" stop-color="#396c12"/><stop offset="0.95" stop-color="#30581a"/></linearGradient><linearGradient id="linear-gradient-22" x1="404.73" y1="42.32" x2="404.73" y2="161.96" gradientUnits="userSpaceOnUse"><stop offset="0" stop-color="#bae84d"/><stop offset="0.02" stop-color="#b3e344"/><stop offset="0.08" stop-color="#9bd326"/><stop offset="0.15" stop-color="#8bc811"/><stop offset="0.21" stop-color="#80c104"/><stop offset="0.27" stop-color="#7dbf00"/><stop offset="0.38" stop-color="#68a800"/><stop offset="0.59" stop-color="#478300"/><stop offset="0.76" stop-color="#336b00"/><stop offset="0.87" stop-color="#2b6300"/></linearGradient><linearGradient id="linear-gradient-23" x1="509.56" y1="605.49" x2="495.4" y2="496.13" gradientTransform="matrix(0.99, -0.13, -0.13, -0.99, -22.09, 725.55)" xlink:href="#linear-gradient-2"/><linearGradient id="linear-gradient-24" x1="424.76" y1="22.23" x2="424.76" y2="165.96" gradientUnits="userSpaceOnUse"><stop offset="0.12" stop-color="#bae84d"/><stop offset="0.18" stop-color="#acde42"/><stop offset="0.31" stop-color="#87c324"/><stop offset="0.44" stop-color="#59a300"/><stop offset="0.7" stop-color="#4c8800"/><stop offset="0.87" stop-color="#427500"/></linearGradient><linearGradient id="linear-gradient-25" x1="431.67" y1="33.05" x2="431.67" y2="161.96" gradientUnits="userSpaceOnUse"><stop offset="0.12" stop-color="#bbe505"/><stop offset="0.2" stop-color="#b5e105"/><stop offset="0.3" stop-color="#a4d504"/><stop offset="0.41" stop-color="#87c103"/><stop offset="0.54" stop-color="#60a502"/><stop offset="0.6" stop-color="#4b9701"/><stop offset="0.66" stop-color="#407e0b"/><stop offset="0.74" stop-color="#346216"/><stop offset="0.79" stop-color="#30581a"/></linearGradient><linearGradient id="linear-gradient-26" x1="403.06" y1="65.48" x2="403.06" y2="162.12" gradientTransform="matrix(1, 0, 0, 1, 0, 0)" xlink:href="#linear-gradient-2"/><linearGradient id="linear-gradient-27" x1="601.14" y1="632.29" x2="590.01" y2="537.72" gradientTransform="matrix(0.97, -0.25, -0.25, -0.97, 5.15, 838.45)" xlink:href="#linear-gradient-2"/><linearGradient id="linear-gradient-28" x1="286.95" y1="59.08" x2="286.95" y2="159.66" gradientTransform="matrix(1, 0, 0, 1, 0, 0)" xlink:href="#linear-gradient-2"/><linearGradient id="linear-gradient-29" x1="0.67" y1="75.63" x2="0.67" y2="198.24" gradientTransform="matrix(0.92, 0.38, -0.38, 0.92, 199.95, -29.26)" xlink:href="#linear-gradient-12"/><linearGradient id="linear-gradient-30" x1="353.88" y1="124.57" x2="353.88" y2="159.11" gradientTransform="matrix(1, 0, 0, 1, 0, 0)" xlink:href="#linear-gradient-2"/><linearGradient id="linear-gradient-31" x1="244.72" y1="47.67" x2="244.72" y2="159.82" gradientTransform="matrix(1, 0, 0, 1, 0, 0)" xlink:href="#linear-gradient-2"/><linearGradient id="linear-gradient-32" x1="258.15" y1="61.44" x2="258.15" y2="160.17" gradientTransform="matrix(1, 0, 0, 1, 0, 0)" xlink:href="#linear-gradient-2"/><linearGradient id="linear-gradient-33" x1="339.88" y1="77.62" x2="339.88" y2="159.66" gradientTransform="matrix(1, 0, 0, 1, 0, 0)" xlink:href="#linear-gradient-2"/><linearGradient id="linear-gradient-34" x1="354.97" y1="78.8" x2="354.97" y2="159.66" gradientTransform="matrix(1, 0, 0, 1, 0, 0)" xlink:href="#linear-gradient-2"/><linearGradient id="linear-gradient-35" x1="276.7" y1="56.53" x2="276.7" y2="159.27" gradientUnits="userSpaceOnUse"><stop offset="0" stop-color="#bae84d"/><stop offset="0.12" stop-color="#a2d82e"/><stop offset="0.26" stop-color="#8eca15"/><stop offset="0.38" stop-color="#81c205"/><stop offset="0.47" stop-color="#7dbf00"/><stop offset="0.64" stop-color="#569300"/><stop offset="0.79" stop-color="#377000"/><stop offset="0.87" stop-color="#2b6300"/></linearGradient><linearGradient id="linear-gradient-36" x1="305.11" y1="48.11" x2="305.11" y2="157.2" gradientTransform="translate(24.15 -15.36) rotate(3.47)" xlink:href="#linear-gradient-2"/><linearGradient id="linear-gradient-37" x1="270.85" y1="29.19" x2="270.85" y2="159.6" gradientTransform="matrix(1, 0, 0, 1, 0, 0)" xlink:href="#linear-gradient-2"/><linearGradient id="linear-gradient-38" x1="-31.67" y1="97.58" x2="-31.67" y2="218.45" gradientTransform="matrix(0.88, 0.47, -0.47, 0.88, 266.09, -26.14)" xlink:href="#linear-gradient-2"/><linearGradient id="linear-gradient-39" x1="452.29" y1="622.78" x2="438.32" y2="504.1" gradientTransform="matrix(0.99, -0.12, -0.12, -0.99, -26.9, 723.94)" xlink:href="#linear-gradient-2"/><linearGradient id="linear-gradient-40" x1="461.95" y1="590.39" x2="451.74" y2="503.63" gradientTransform="matrix(0.99, -0.12, -0.12, -0.99, -26.9, 723.94)" gradientUnits="userSpaceOnUse"><stop offset="0" stop-color="#d6ff6e"/><stop offset="0.61" stop-color="#8cbf00"/><stop offset="0.87" stop-color="#498c00"/></linearGradient><linearGradient id="linear-gradient-41" x1="370.21" y1="626.39" x2="355.92" y2="516.08" gradientTransform="matrix(0.99, -0.13, -0.13, -0.99, -22.09, 725.55)" gradientUnits="userSpaceOnUse"><stop offset="0.26" stop-color="#bae84d"/><stop offset="0.34" stop-color="#afe03f"/><stop offset="0.5" stop-color="#91cd1a"/><stop offset="0.59" stop-color="#7dbf00"/><stop offset="0.76" stop-color="#569300"/><stop offset="0.91" stop-color="#377000"/><stop offset="0.99" stop-color="#2b6300"/></linearGradient><linearGradient id="linear-gradient-42" x1="299.83" y1="631.41" x2="288.02" y2="531.07" gradientTransform="matrix(0.99, -0.12, -0.12, -0.99, -26.9, 723.94)" gradientUnits="userSpaceOnUse"><stop offset="0" stop-color="#bae84d"/><stop offset="0.05" stop-color="#a4d931"/><stop offset="0.1" stop-color="#93ce1b"/><stop offset="0.15" stop-color="#86c50c"/><stop offset="0.21" stop-color="#7fc003"/><stop offset="0.3" stop-color="#7dbf00"/><stop offset="0.54" stop-color="#569300"/><stop offset="0.75" stop-color="#377000"/><stop offset="0.87" stop-color="#2b6300"/></linearGradient><linearGradient id="linear-gradient-43" x1="152.94" y1="667.92" x2="139.28" y2="551.86" gradientTransform="matrix(1, 0.09, 0.09, -1, -45.52, 699.42)" xlink:href="#linear-gradient-2"/><linearGradient id="linear-gradient-44" x1="246.83" y1="49.68" x2="246.83" y2="160.17" gradientUnits="userSpaceOnUse"><stop offset="0" stop-color="#bae84d"/><stop offset="0.02" stop-color="#b0e140"/><stop offset="0.08" stop-color="#9ad224"/><stop offset="0.15" stop-color="#8ac810"/><stop offset="0.21" stop-color="#80c104"/><stop offset="0.27" stop-color="#7dbf00"/><stop offset="0.52" stop-color="#569300"/><stop offset="0.74" stop-color="#377000"/><stop offset="0.87" stop-color="#2b6300"/></linearGradient><linearGradient id="linear-gradient-45" x1="351.08" y1="33.95" x2="351.08" y2="159.66" xlink:href="#linear-gradient-22"/><linearGradient id="linear-gradient-46" x1="125.78" y1="-22.14" x2="125.78" y2="102.04" gradientTransform="matrix(1, 0.02, -0.02, 0.89, 8.34, 65.83)" xlink:href="#linear-gradient-2"/><linearGradient id="linear-gradient-47" x1="149.07" y1="34.04" x2="149.07" y2="152.84" gradientTransform="translate(-28.33 14.84) rotate(-1.83)" xlink:href="#linear-gradient-2"/><linearGradient id="linear-gradient-48" x1="226.19" y1="56.11" x2="226.19" y2="160.17" gradientTransform="matrix(1, 0, 0, 1, 0, 0)" xlink:href="#linear-gradient-2"/><linearGradient id="linear-gradient-49" x1="344.24" y1="16.17" x2="344.24" y2="159.66" gradientTransform="matrix(1, 0, 0, 1, 0, 0)" xlink:href="#linear-gradient-2"/><linearGradient id="linear-gradient-50" x1="221.47" y1="54.89" x2="221.47" y2="159.77" gradientUnits="userSpaceOnUse"><stop offset="0.12" stop-color="#bae84d"/><stop offset="0.18" stop-color="#acde42"/><stop offset="0.3" stop-color="#87c324"/><stop offset="0.43" stop-color="#59a300"/><stop offset="0.6" stop-color="#4c8800"/><stop offset="0.71" stop-color="#427500"/></linearGradient><linearGradient id="linear-gradient-51" x1="285.71" y1="15.39" x2="285.71" y2="159.11" gradientTransform="matrix(1, 0, 0, 1, 0, 0)" xlink:href="#linear-gradient-2"/><linearGradient id="linear-gradient-52" x1="234.27" y1="43.51" x2="234.27" y2="161" xlink:href="#linear-gradient-44"/><linearGradient id="linear-gradient-53" x1="264.83" y1="47.53" x2="264.83" y2="160.37" xlink:href="#linear-gradient-44"/><linearGradient id="linear-gradient-54" x1="236.3" y1="-9.41" x2="258.3" y2="178.59" gradientUnits="userSpaceOnUse"><stop offset="0.18" stop-color="#d6ff6e"/><stop offset="0.25" stop-color="#d1fb66"/><stop offset="0.35" stop-color="#c3ee51"/><stop offset="0.47" stop-color="#abda2f"/><stop offset="0.61" stop-color="#8cbf00"/><stop offset="0.87" stop-color="#498c00"/></linearGradient><linearGradient id="linear-gradient-55" x1="106.79" y1="640.5" x2="120.16" y2="526.91" gradientTransform="translate(392.89 674.65) rotate(173.29)" xlink:href="#linear-gradient-2"/><linearGradient id="linear-gradient-56" x1="-37.58" y1="630.62" x2="-22.01" y2="498.33" gradientTransform="translate(392.89 674.65) rotate(173.29)" xlink:href="#linear-gradient-2"/><linearGradient id="linear-gradient-57" x1="227.21" y1="596.04" x2="213.26" y2="477.59" gradientTransform="matrix(1, 0.01, 0.01, -1, -17.75, 631.01)" xlink:href="#linear-gradient-2"/><linearGradient id="linear-gradient-58" x1="136.32" y1="39.91" x2="136.32" y2="165.44" gradientTransform="translate(-50.19 8.27) rotate(-4.36)" xlink:href="#linear-gradient-2"/><linearGradient id="linear-gradient-59" x1="66.68" y1="64.23" x2="66.68" y2="160.4" gradientTransform="matrix(1, 0, 0, 1, 0, 0)" xlink:href="#linear-gradient-2"/><linearGradient id="linear-gradient-60" x1="17.68" y1="54.79" x2="17.68" y2="159.85" gradientTransform="matrix(1, 0, 0, 1, 0, 0)" xlink:href="#linear-gradient-2"/><linearGradient id="linear-gradient-61" x1="39.71" y1="61.07" x2="39.71" y2="158.32" gradientTransform="matrix(1, 0, 0, 1, 0, 0)" xlink:href="#linear-gradient-2"/><linearGradient id="linear-gradient-62" x1="238.71" y1="624.1" x2="227.72" y2="530.72" gradientTransform="matrix(0.97, -0.26, -0.26, -0.97, 14.79, 765.73)" xlink:href="#linear-gradient-2"/><linearGradient id="linear-gradient-63" x1="162.65" y1="627.9" x2="152.03" y2="537.69" gradientTransform="matrix(0.99, -0.12, -0.12, -0.99, -26.9, 723.94)" gradientUnits="userSpaceOnUse"><stop offset="0.18" stop-color="#d6ff6e"/><stop offset="0.27" stop-color="#c5f055"/><stop offset="0.44" stop-color="#a6d627"/><stop offset="0.58" stop-color="#93c50b"/><stop offset="0.65" stop-color="#8cbf00"/><stop offset="1" stop-color="#498c00"/></linearGradient><linearGradient id="linear-gradient-64" x1="41.77" y1="57.46" x2="41.77" y2="157.4" gradientTransform="matrix(1, 0, 0, 1, 0, 0)" xlink:href="#linear-gradient-2"/><linearGradient id="linear-gradient-65" x1="330.26" y1="-4.27" x2="330.26" y2="124.34" gradientTransform="translate(-224.8 129.19) rotate(-16.09)" xlink:href="#linear-gradient-2"/><linearGradient id="linear-gradient-66" x1="52.15" y1="23.47" x2="52.15" y2="166.97" gradientTransform="translate(-36.67 -0.64) rotate(-5.65)" xlink:href="#linear-gradient-2"/><linearGradient id="linear-gradient-67" x1="37.49" y1="87.81" x2="37.49" y2="158.21" gradientTransform="matrix(1, 0, 0, 1, 0, 0)" xlink:href="#linear-gradient-2"/><linearGradient id="linear-gradient-68" x1="328.91" y1="237.84" x2="328.91" y2="336.17" gradientTransform="matrix(0.95, -0.3, 0.38, 1.18, -271.13, -144.53)" xlink:href="#linear-gradient-12"/><linearGradient id="linear-gradient-69" x1="467.62" y1="-8.63" x2="467.62" y2="106.03" gradientTransform="matrix(1.53, -0.48, 0.26, 0.83, -573.52, 294.17)" xlink:href="#linear-gradient-2"/><linearGradient id="linear-gradient-70" x1="340.08" y1="73.01" x2="340.08" y2="191.99" gradientTransform="translate(-170.87 61.9) rotate(-15.6)" xlink:href="#linear-gradient-2"/><linearGradient id="linear-gradient-71" x1="330.78" y1="61.14" x2="330.78" y2="193.21" gradientTransform="translate(-170.87 61.9) rotate(-15.6)" xlink:href="#linear-gradient-2"/><linearGradient id="linear-gradient-72" x1="181.33" y1="71.13" x2="180" y2="169.13" gradientTransform="matrix(1, 0, 0, 1, 0, 0)" xlink:href="#linear-gradient-2"/><linearGradient id="linear-gradient-73" x1="357.57" y1="69.34" x2="357.57" y2="195.59" gradientTransform="translate(-170.87 61.9) rotate(-15.6)" xlink:href="#linear-gradient-2"/><linearGradient id="linear-gradient-74" x1="351.65" y1="51.23" x2="351.65" y2="194.92" gradientTransform="translate(-170.87 61.9) rotate(-15.6)" xlink:href="#linear-gradient-2"/><linearGradient id="linear-gradient-75" x1="276.08" y1="46.07" x2="276.08" y2="181.06" gradientTransform="translate(-118.89 38.02) rotate(-10.67)" xlink:href="#linear-gradient-2"/><linearGradient id="linear-gradient-76" x1="246.31" y1="639.82" x2="260.09" y2="522.73" gradientTransform="translate(392.89 674.65) rotate(173.29)" xlink:href="#linear-gradient-12"/><linearGradient id="linear-gradient-77" x1="82.57" y1="642.93" x2="101.47" y2="482.4" gradientTransform="translate(383.99 626.9) rotate(161.61)" xlink:href="#linear-gradient-2"/><linearGradient id="linear-gradient-78" x1="142.76" y1="677.19" x2="126.36" y2="537.8" gradientTransform="matrix(0.99, -0.12, -0.12, -0.99, -26.9, 723.94)" xlink:href="#linear-gradient-2"/><linearGradient id="linear-gradient-79" x1="236.4" y1="89.03" x2="236.4" y2="159.11" gradientUnits="userSpaceOnUse"><stop offset="0" stop-color="#d6ff6e"/><stop offset="0.03" stop-color="#d0fa65"/><stop offset="0.17" stop-color="#b3e13a"/><stop offset="0.3" stop-color="#9ece1a"/><stop offset="0.41" stop-color="#91c307"/><stop offset="0.48" stop-color="#8cbf00"/><stop offset="0.87" stop-color="#498c00"/></linearGradient><linearGradient id="linear-gradient-80" x1="192.12" y1="21.45" x2="164.46" y2="176.22" gradientUnits="userSpaceOnUse"><stop offset="0" stop-color="#c7f230"/><stop offset="0.7" stop-color="#8cbf00"/><stop offset="1" stop-color="#498200"/></linearGradient><linearGradient id="linear-gradient-81" x1="457.58" y1="-57.78" x2="457.58" y2="29.91" gradientTransform="translate(-248.64 311.41) rotate(-24.02)" xlink:href="#linear-gradient-63"/><linearGradient id="linear-gradient-82" x1="414.34" y1="610.21" x2="402.63" y2="510.78" gradientTransform="matrix(0.99, -0.12, -0.12, -0.99, -26.9, 723.94)" xlink:href="#linear-gradient-2"/><linearGradient id="linear-gradient-83" x1="467.28" y1="54.05" x2="467.28" y2="143.01" gradientTransform="translate(-180.47 118.1) rotate(-12.01)" xlink:href="#linear-gradient-2"/><linearGradient id="linear-gradient-84" x1="288.9" y1="353.6" x2="288.9" y2="425.41" gradientTransform="matrix(1, -0.03, 0.05, 1.48, -42.89, -460.66)" xlink:href="#linear-gradient-2"/><linearGradient id="linear-gradient-85" x1="9.74" y1="624.52" x2="29.49" y2="456.8" gradientTransform="translate(392.89 674.65) rotate(173.29)" gradientUnits="userSpaceOnUse"><stop offset="0" stop-color="#bae84d"/><stop offset="0.3" stop-color="#b5e647"/><stop offset="0.38" stop-color="#acdf42"/><stop offset="0.5" stop-color="#93cb35"/><stop offset="0.66" stop-color="#6aab20"/><stop offset="0.85" stop-color="#328004"/><stop offset="0.87" stop-color="#2b7a00"/></linearGradient><linearGradient id="linear-gradient-86" x1="66.22" y1="402.15" x2="80.17" y2="283.68" gradientTransform="matrix(-0.74, 0.18, -0.13, -1.32, 386.77, 571.88)" xlink:href="#linear-gradient-85"/><linearGradient id="linear-gradient-87" x1="331.17" y1="370.86" x2="331.17" y2="426.17" gradientTransform="matrix(1, -0.03, 0.05, 1.48, -42.89, -460.66)" xlink:href="#linear-gradient-2"/><linearGradient id="linear-gradient-88" x1="15.33" y1="376.57" x2="26.07" y2="285.38" gradientTransform="matrix(-0.74, 0.18, -0.13, -1.32, 386.77, 571.88)" xlink:href="#linear-gradient-85"/><linearGradient id="linear-gradient-89" x1="444.92" y1="68.39" x2="444.92" y2="136.37" gradientTransform="translate(-180.47 118.1) rotate(-12.01)" xlink:href="#linear-gradient-2"/><linearGradient id="linear-gradient-90" x1="266.5" y1="368.58" x2="266.5" y2="423.88" gradientTransform="matrix(1, -0.03, 0.05, 1.48, -42.89, -460.66)" xlink:href="#linear-gradient-2"/><linearGradient id="linear-gradient-91" x1="33.3" y1="604.62" x2="48.52" y2="475.25" gradientTransform="translate(392.89 674.65) rotate(173.29)" xlink:href="#linear-gradient-2"/><linearGradient id="linear-gradient-92" x1="202.51" y1="18.96" x2="202.51" y2="86.94" gradientTransform="translate(-180.47 118.1) rotate(-12.01)" xlink:href="#linear-gradient-2"/><linearGradient id="linear-gradient-93" x1="279.24" y1="631.47" x2="294.47" y2="502.1" gradientTransform="translate(392.89 674.65) rotate(173.29)" xlink:href="#linear-gradient-2"/><linearGradient id="linear-gradient-94" x1="422.39" y1="431.36" x2="433.12" y2="340.17" gradientTransform="matrix(-0.74, 0.18, -0.13, -1.32, 386.77, 571.88)" xlink:href="#linear-gradient-2"/><linearGradient id="linear-gradient-95" x1="1343.68" y1="499.81" x2="1331.98" y2="400.39" gradientTransform="translate(1686.82 723.94) rotate(-173.29)" xlink:href="#linear-gradient-2"/><linearGradient id="linear-gradient-96" x1="-916.26" y1="528.5" x2="-894" y2="339.34" gradientTransform="matrix(0.99, 0.12, 0.12, -0.99, 1267.04, 674.65)" xlink:href="#linear-gradient-40"/><linearGradient id="linear-gradient-97" x1="1477.47" y1="128.48" x2="1477.47" y2="196.46" gradientTransform="matrix(-0.96, -0.11, -0.25, 0.76, 1852.15, 174.94)" xlink:href="#linear-gradient-40"/><linearGradient id="linear-gradient-98" x1="1252.32" y1="391.36" x2="1252.32" y2="446.66" gradientTransform="matrix(-1, -0.03, -0.05, 1.48, 1702.81, -460.66)" xlink:href="#linear-gradient-54"/><linearGradient id="linear-gradient-99" x1="-1208.4" y1="209.32" x2="-1197.67" y2="118.13" gradientTransform="matrix(0.74, 0.18, 0.13, -1.32, 1273.16, 571.88)" xlink:href="#linear-gradient-40"/><linearGradient id="linear-gradient-100" x1="117.05" y1="655.46" x2="103.91" y2="543.9" gradientTransform="matrix(0.99, -0.12, -0.12, -0.99, -26.9, 723.94)" xlink:href="#linear-gradient-80"/><linearGradient id="linear-gradient-101" x1="1501.78" y1="211.59" x2="1447.88" y2="339.94" gradientTransform="matrix(-0.97, -0.24, -0.24, 0.97, 1819.2, 223.75)" gradientUnits="userSpaceOnUse"><stop offset="0" stop-color="#c2ed42"/><stop offset="0.47" stop-color="#8cbf00"/><stop offset="1" stop-color="#3d6300"/></linearGradient><linearGradient id="linear-gradient-102" x1="1484.03" y1="184.2" x2="1404.39" y2="373.82" gradientTransform="matrix(-0.97, -0.24, -0.24, 0.97, 1819.2, 223.75)" gradientUnits="userSpaceOnUse"><stop offset="0" stop-color="#c2ed42"/><stop offset="0.57" stop-color="#8cbf00"/><stop offset="1" stop-color="#3d6300"/></linearGradient><linearGradient id="linear-gradient-103" x1="161.26" y1="63.84" x2="205.59" y2="177.62" gradientUnits="userSpaceOnUse"><stop offset="0" stop-color="#bf0"/><stop offset="0.67" stop-color="#8cbf00"/><stop offset="1" stop-color="#91c400"/></linearGradient><linearGradient id="linear-gradient-104" x1="206.15" y1="100.85" x2="202.49" y2="125.06" gradientUnits="userSpaceOnUse"><stop offset="0" stop-color="#bf0"/><stop offset="0.02" stop-color="#b6f800"/><stop offset="0.1" stop-color="#a3df00"/><stop offset="0.18" stop-color="#96cd00"/><stop offset="0.27" stop-color="#8fc200"/><stop offset="0.37" stop-color="#8cbf00"/><stop offset="1" stop-color="#638000"/></linearGradient><linearGradient id="linear-gradient-105" x1="199.83" y1="79.33" x2="227.25" y2="139.2" xlink:href="#linear-gradient-104"/><linearGradient id="linear-gradient-106" x1="197.6" y1="80.36" x2="225.02" y2="140.22" gradientUnits="userSpaceOnUse"><stop offset="0" stop-color="#bf0"/><stop offset="0.51" stop-color="#8cbf00"/><stop offset="1" stop-color="#638000"/></linearGradient><linearGradient id="linear-gradient-107" x1="205.4" y1="104.15" x2="202.11" y2="125.94" xlink:href="#linear-gradient-106"/><linearGradient id="linear-gradient-108" x1="179.92" y1="99.04" x2="189.06" y2="150.45" xlink:href="#linear-gradient-106"/><linearGradient id="linear-gradient-109" x1="191.97" y1="153.19" x2="177.57" y2="106.12" gradientUnits="userSpaceOnUse"><stop offset="0" stop-color="#bf0"/><stop offset="0.03" stop-color="#b1f100"/><stop offset="0.09" stop-color="#a1db00"/><stop offset="0.16" stop-color="#95cb00"/><stop offset="0.24" stop-color="#8ec200"/><stop offset="0.35" stop-color="#8cbf00"/><stop offset="1" stop-color="#638000"/></linearGradient><linearGradient id="linear-gradient-110" x1="442.87" y1="16.86" x2="441.37" y2="259.87" gradientTransform="matrix(1, 0, 0, 1, 0, 0)" xlink:href="#linear-gradient-2"/><linearGradient id="linear-gradient-111" x1="461.41" y1="-10.96" x2="434.41" y2="282.29" gradientTransform="matrix(1, 0, 0, 1, 0, 0)" xlink:href="#linear-gradient-2"/><linearGradient id="linear-gradient-112" x1="9.8" y1="26.62" x2="9.8" y2="159.05" gradientTransform="matrix(1, 0, 0, 1, 0, 0)" xlink:href="#linear-gradient-2"/><linearGradient id="linear-gradient-113" x1="3.81" y1="14.15" x2="2.31" y2="257.15" gradientTransform="matrix(1, 0, 0, 1, 0, 0)" xlink:href="#linear-gradient-2"/><linearGradient id="linear-gradient-114" x1="20.95" y1="-51.51" x2="-6.05" y2="241.74" gradientTransform="matrix(1, 0, 0, 1, 0, 0)" xlink:href="#linear-gradient-2"/><linearGradient id="linear-gradient-115" x1="9.18" y1="23.33" x2="-5.45" y2="201.1" xlink:href="#linear-gradient-80"/><linearGradient id="linear-gradient-116" x1="124.9" y1="127.65" x2="103.4" y2="22.65" gradientUnits="userSpaceOnUse"><stop offset="0" stop-color="#bae84d"/><stop offset="0.03" stop-color="#b0e140"/><stop offset="0.12" stop-color="#9ad224"/><stop offset="0.21" stop-color="#8ac810"/><stop offset="0.3" stop-color="#80c104"/><stop offset="0.39" stop-color="#7dbf00"/><stop offset="0.5" stop-color="#77b900"/><stop offset="0.65" stop-color="#68a700"/><stop offset="0.82" stop-color="#4e8a00"/><stop offset="1" stop-color="#2b6300"/></linearGradient><linearGradient id="linear-gradient-117" x1="131.12" y1="75.43" x2="141.12" y2="172.76" gradientTransform="matrix(1, 0, 0, 1, 0, 0)" xlink:href="#linear-gradient-2"/><linearGradient id="linear-gradient-118" x1="-1652.33" y1="93.22" x2="-1641.59" y2="2.03" gradientTransform="matrix(0.71, 0.27, 0.3, -1.29, 1264.43, 647.61)" xlink:href="#linear-gradient-2"/><linearGradient id="linear-gradient-119" x1="281.27" y1="391.93" x2="281.27" y2="437.89" gradientTransform="matrix(0.96, -0.27, 0.41, 1.43, -310.3, -389.64)" xlink:href="#linear-gradient-2"/></defs><title>Ativo 2</title><g id="Camada_2" data-name="Camada 2"><g id="Camada_1-2" data-name="Camada 1"><g class="cls-2"><path class="cls-3" d="M343.76,29.57c-.07,0-3.09,21.56-7.68,52.16-2.3,15.3-5.54,33.08-9.33,51.15-1.7,8.11-4.33,17.55-6.44,26.23H330c1.92-7.25,3.85-15.34,5.75-24.36C343,100.4,344.94,64.72,343.76,29.57Z" transform="translate(0 -10.79)"/><path class="cls-4" d="M123.51,72.25c3.19-20.41,6.1-41,8.32-61.44-10.92,40.86-19,82.05-27.2,122.88-2,9.92-3.59,19.87-5.28,29.82l8.52-2.17c1.67-9.67,3.23-18.86,5.1-28.25C117,113,120.37,92.46,123.51,72.25Z" transform="translate(0 -10.79)"/><path class="cls-5" d="M304.76,144.5c2.13-17.81,3.91-34.86,5-49.67,2.16-29.61,2.47-50.27,2.47-50.27-7.13,33-11.78,66.41-16.39,99.72-.75,5.42-1.42,10.56-2,15.38h9.06C303.52,154.54,304.16,149.53,304.76,144.5Z" transform="translate(0 -10.79)"/><path class="cls-6" d="M302.72,67c.37-14.29,1.27-26.85,2.36-36.83-2.22,4.17-3.37,20.59-5.49,26-3.68,28.13-6.8,44.68-8.26,72.87-.58,11.21-1,21.57-1.37,30.07h9.27c.63-10.37,1.07-20.55,1.51-30.59C301.66,108.08,302.19,87.51,302.72,67Z" transform="translate(0 -10.79)"/><path class="cls-7" d="M422.91,48.82q.21-7.32.67-14.42a175.33,175.33,0,0,0-8.39,36.78,611.9,611.9,0,0,0-3.59,63.2c-.05,11.48.08,22.13.26,30.8l6.12-.49c-.34-30.68-.61-61.53,1.84-91.82C420.54,64,421.65,55.93,422.91,48.82Z" transform="translate(0 -10.79)"/><path class="cls-8" d="M385.18,50.4c9.78,37.28,10.53,74.65,13.63,112.1H409c-.07-25.09-1.14-50.22-8.1-75.14A155,155,0,0,0,385.18,50.4Z" transform="translate(0 -10.79)"/><path class="cls-9" d="M390.8,104.67c-1.32-30.35-2-51.63-2.11-51.65-4,35.91-4.92,72.22-4.8,108.4h8.55c0-1.8-.07-3.6-.14-5.37C392.05,137.48,391.46,119.88,390.8,104.67Z" transform="translate(0 -10.79)"/><path class="cls-10" d="M97,51.79c-1.4,16.64-4.6,33.21-8.38,49.55-3.73,16.1-8.62,32.57-13.48,48.58-2.11,7-4.45,14.11-6.87,21.25l10-.73c2-5.84,4.1-12.25,5.92-19C93.24,117.91,99.07,85.66,97,51.79Z" transform="translate(0 -10.79)"/><path class="cls-11" d="M52,40.24c-.25.15,4,4.74,6.1,14.9s1.61,25.73,0,43.43a593.46,593.46,0,0,1-8.82,58.85H58.2c3-18,6-38.43,6.27-58.55C64.74,78.45,65.05,53.45,52,40.24Z" transform="translate(0 -10.79)"/><path class="cls-12" d="M75.67,22.16C59.33,61.78,49.29,101,39,137.9c-2.2,7.89-4.31,15.34-6.22,21.95H42.3c7.66-26.18,14.28-52.54,20.27-79C67,61.32,71.4,41.74,75.67,22.16Z" transform="translate(0 -10.79)"/><path class="cls-13" d="M61.7,102.06C66.05,84.27,71,66.34,77.19,48.73,58,82.12,48.74,119.1,41.73,155.22c-.65,2.73-1.28,5.44-1.89,8.09h9.22c.6-2.66,1.17-5.3,1.69-7.87C54.27,137.77,57.41,119.61,61.7,102.06Z" transform="translate(0 -10.79)"/><path class="cls-14" d="M99,23C85.53,42.6,81.33,55.85,81,77.54c-.31,20.53-4,41.3-5.27,61.63-.52,8.11-1,16.3-2,24.35l9.16-1.29c1-7.22,1.7-15.14,2.05-23.22C86.69,97.79,80.5,46,99,23Z" transform="translate(0 -10.79)"/><path class="cls-15" d="M71.14,56c10,25.23,8.89,53.37,1.23,80.82-1.92,6.86-4,13.76-6.25,20.66l8.43-1.53c7.32-20.84,12.57-41.78,10-61.41C82.89,81.14,79.23,68.05,71.14,56Z" transform="translate(0 -10.79)"/><path class="cls-16" d="M382,102.72a175.43,175.43,0,0,1,17.78-36.43c-23.34,23-34,48.44-30.77,73.3.57,8.09,1,14.92,1.44,20.94h9.3c-.31-7.21-.27-14.34-1.07-21.34C377.3,127.07,377.88,114.63,382,102.72Z" transform="translate(0 -10.79)"/><path class="cls-17" d="M387.57,131.65c-2.1-16.66-4-32.65-5.39-46.5a440.12,440.12,0,0,1-2.05-47.25c-7.47,31.3-5.29,63.86-1.79,95.42a271.68,271.68,0,0,0,3.16,29.18H391c-.26-1.79-.5-3.62-.74-5.45C389.2,148.76,388.67,140.34,387.57,131.65Z" transform="translate(0 -10.79)"/><path class="cls-18" d="M343.64,150.9a193.33,193.33,0,0,1-14.26-19.55c-10-16.69-14.92-31.83-16.71-45.19a16.16,16.16,0,0,1-5.58-4.59C299,84.38,290.25,79.88,287,67.72c-2.76-10.36-1.12-15.62-1.12-15.62,5.52,11.77,9.17,6.48,15.26,10.11,7.51,4.47,12.33,15.25,7.57,18.58A15.53,15.53,0,0,0,312.41,84,89.72,89.72,0,0,1,313,59.55a73.39,73.39,0,0,1,4.81-16.82,9.44,9.44,0,0,1-2.2-3c-4.27,1.82-8.71-3.33-9.76-11.94-.89-7.34,2.53-11.89,3-13.47A29,29,0,0,1,310.29,17s.55,1.21,6.18,8.27c3.93,4.93,2.66,11.67.07,14a8.64,8.64,0,0,0,1.77,2.39C326.21,22.5,332,22.76,332,22.76S320.94,26,315.18,59.53c-.3,1.74-.47,3.55-.64,5.4a15.42,15.42,0,0,1,2-1.89c-2.14-4.59,3.56-10.86,13.37-12.3,10.71-1.58,14.75,1,16.48,1.13a1.71,1.71,0,0,0,.26,0s-2.9-2-10.37,6.44c-5.2,5.88-16.57,8.14-19.14,5.64a12.22,12.22,0,0,0-2.79,3.11c.27,8-3.07,12.77,2.5,27.72a16.46,16.46,0,0,1,1.5-3.36c-4.25-3.94-1.31-13.24,7.09-20.87,7.17-6.5,18.28-10.3,20.17-10.92l.27-.1s-4.37,6.17-8.64,18.33c-3,8.5-14.05,15.81-17.86,14.28A14.31,14.31,0,0,0,317.75,97c2.77,7,10.22,26.36,15,34,3.26,5.21,7.86,12.56,12.11,18.26Z" transform="translate(0 -10.79)"/><path class="cls-19" d="M172.15,74.71c6.56-14.4,5.93-31.53-2.65-42.4a28.26,28.26,0,0,0-13.94-9.51c-7.48-2.37-13.75-.66-18,2.7A15.67,15.67,0,0,0,132,33.86a9.58,9.58,0,0,0,1.55,8.42,9.77,9.77,0,0,0,1.43,1.45c2.64,2.1,4.19,1.89,5.18,1.13a4.12,4.12,0,0,0,1.38-2.75,4,4,0,0,0-.61-2.86,2.1,2.1,0,0,0-2.48-.58L138,37.23a3.63,3.63,0,0,1,4.08,1.09A6,6,0,0,1,141,46c-1.64,1.32-4.23,1.22-7-1.15a10.66,10.66,0,0,1-1.67-1.69c-4.35-5.58-1.95-14,4.3-18.88,4.62-3.66,11.47-5.47,19.39-3a29.75,29.75,0,0,1,14.66,10,32.75,32.75,0,0,1,5.06,9.25,20.66,20.66,0,0,0,.32,6.36l1.31-.27c-.05-.2-.07-.4-.11-.59a48.83,48.83,0,0,1-3.73,29.21c-5.67,12.45-15.38,23.51-27.83,33.32-12.77,10.06-28.43,18.83-45.6,26.45L98.9,134c17.32-7.65,33.09-16.44,45.86-26.52C157.08,97.77,166.61,86.89,172.15,74.71Z" transform="translate(0 -10.79)"/><path class="cls-20" d="M176.05,47a20.66,20.66,0,0,1-.32-6.36A15.54,15.54,0,0,1,181.14,30a12,12,0,0,1,6.48-2.52,9.49,9.49,0,0,1,8.23,3.69,8.65,8.65,0,0,1,2,5.38,6.48,6.48,0,0,1-2.58,5.18,8.23,8.23,0,0,1-1.35.87,3.26,3.26,0,0,1-4.24-1,4.28,4.28,0,0,1,.42-6,3.85,3.85,0,0,1,.83-.51h0l.57,1.21a3.08,3.08,0,0,0-.57.35,2.43,2.43,0,0,0-.93,2,3.46,3.46,0,0,0,.73,2.14,1.92,1.92,0,0,0,2.57.64,7.21,7.21,0,0,0,1.14-.74c2.87-2.26,2.55-5.9.4-8.69a8.18,8.18,0,0,0-7.07-3.18A10.67,10.67,0,0,0,182,31c-4,3.15-5.76,9.27-4.72,15.1,0,.19.06.39.11.59Z" transform="translate(0 -10.79)"/><path class="cls-21" d="M429.1,61.92c-.12,0-2.23,17.76-6.24,42.86-2,12.54-4.75,27.07-7.52,42-1,5.3-2.11,10.36-3.18,15.76h9.08c.82-4.27,1.7-8.87,2.54-13.83A414.66,414.66,0,0,0,429.1,61.92Z" transform="translate(0 -10.79)"/><path class="cls-22" d="M363.43,41.24s-1.15,20.64-1,50.31c.05,14.84.66,32,1.58,49.84.32,6.32.68,12.6,1.1,19.14h9.21c-.35-5.81-.72-12.16-1.2-18.93C370.74,108.12,368.35,74.57,363.43,41.24Z" transform="translate(0 -10.79)"/><path class="cls-23" d="M446.4,85.63c1.16-16.08,1.49-32.26-.75-48.3C440.34,79.1,430,120.87,424.43,162.64l10.83-.59c1.62-9.49,4.06-19.23,5.2-28.55C442.39,117.7,445.26,101.48,446.4,85.63Z" transform="translate(0 -10.79)"/><path class="cls-24" d="M409.44,42.32c-.11,0-2,23.38-5.17,56.67-1.58,16.68-3.23,36-4.61,56.44-.19,2.15-.36,4.34-.52,6.53h8.68C410.08,122.17,411.2,82.16,409.44,42.32Z" transform="translate(0 -10.79)"/><path class="cls-25" d="M416.09,59.66S412,74.31,407.6,95.54c-4.85,22.06-8.14,44.32-12.69,66.42h9.27c2-10.08,5.17-26.37,5.5-29C413,108.63,415.78,84.17,416.09,59.66Z" transform="translate(0 -10.79)"/><path class="cls-26" d="M430.79,22.23a917.32,917.32,0,0,0-11.4,104.14c-.87,15.66-1.25,29.5-1.43,39.59h9.6C429.83,118.18,433.06,70,430.79,22.23Z" transform="translate(0 -10.79)"/><path class="cls-27" d="M436.87,69.88c.37-14.29,1.27-26.85,2.35-36.83-2.21,4.17-2.44,9.22-4.75,20.39-3.68,28.13-7.53,50.25-9,78.44-.58,11.21-1,21.58-1.37,30.08h9.27c.63-10.38,1.06-20.56,1.51-30.6C435.8,110.92,436.34,90.35,436.87,69.88Z" transform="translate(0 -10.79)"/><path class="cls-28" d="M398.85,159.88c.25-6.95.46-13.92.76-20.64.55-12.48,1-25,2.75-37.52a110.7,110.7,0,0,1,6.95-26.92,23.36,23.36,0,0,1,7.4-9.32c-14.78,10.71-17.32,23.09-21.48,35.59a257.38,257.38,0,0,0-5.17,38.3c-.45,8.43-.54,16.36-.66,22.75h9.42C398.85,161.35,398.87,160.6,398.85,159.88Z" transform="translate(0 -10.79)"/><path class="cls-29" d="M441.32,75.75c-.16,0-1.48,17.1-4.05,41.67-1.29,12.28-2.93,26.5-4.7,41.26-.16,1.42-.33,2.86-.49,4.29l10.75-1.44c.1-1,.21-2.09.3-3.16C445.77,130.81,446.21,102.78,441.32,75.75Z" transform="translate(0 -10.79)"/><path class="cls-30" d="M295.22,59.08c-.12,0-2.23,17.76-6.24,42.85-2,12.55-4.75,27.07-7.52,42-1,5.3-2.11,10.35-3.17,15.76h9.07c.83-4.27,1.71-8.87,2.55-13.83A414.66,414.66,0,0,0,295.22,59.08Z" transform="translate(0 -10.79)"/><path class="cls-31" d="M144.88,29.75c-1.09,17.13-2.06,34.36-3,51.57-1.35,25.22-1.6,51-.93,77.32l10,6.48c-.17-7.72-.33-16.46-.42-25.83C150.23,103.63,150.6,68.13,144.88,29.75Z" transform="translate(0 -10.79)"/><path class="cls-32" d="M346,159.11h7.88c3.65-11.21,7.27-23.83,8-34.54C361.33,126.12,353.69,141.15,346,159.11Z" transform="translate(0 -10.79)"/><path class="cls-33" d="M251.26,47.67C248,62.28,245.89,77,244,91.57c-1.84,14.36-3.5,28.81-5.57,43.2-1.95,8-2.17,16.76-3.11,25H248C253.9,122.61,256.56,84.89,251.26,47.67Z" transform="translate(0 -10.79)"/><path class="cls-34" d="M256,99.6a187.15,187.15,0,0,1,17.77-38.16c-23.33,24.11-34,50.74-30.76,76.79.56,8.48,1,15.63,1.44,21.94h9.3c-.31-7.56-.28-15-1.07-22.36C251.34,125.12,251.92,112.08,256,99.6Z" transform="translate(0 -10.79)"/><path class="cls-35" d="M350.14,77.63a282.83,282.83,0,0,1-6.93,36.58c-2.79,10.65-6.54,22.83-10.91,35.48a94.07,94.07,0,0,1-3.6,10h9.37c.93-2.5,1.82-5.11,2.65-7.79C348,128,353.25,102.51,350.14,77.63Z" transform="translate(0 -10.79)"/><path class="cls-36" d="M365.44,78.8c-7.52,26.86-14,53.92-21,80.86h9.82C361.24,133.09,366,105.86,365.44,78.8Z" transform="translate(0 -10.79)"/><path class="cls-37" d="M281.3,138.11c-.23-13.48-.15-27-.21-40.44C281,84,280.8,70.24,279.66,56.53c-7.22,34.38-8.7,68.42-7.55,102.74h9.29C281.46,152.49,282,145,281.3,138.11Z" transform="translate(0 -10.79)"/><path class="cls-38" d="M336.78,51.78c-4.3,14.41-7.95,29-11.44,43.45-3.45,14.32-7.25,28.71-11.14,42.94-1.89,6.92-3.95,14.07-6,21.18l8.66.52c1.82-6,3.83-12.79,5.62-20.06A581.25,581.25,0,0,0,336.78,51.78Z" transform="translate(0 -10.79)"/><path class="cls-39" d="M275.57,29.19c-.12,0-2.05,25.5-5.18,61.78-1.57,18.17-3.23,39.25-4.6,61.51-.2,2.35-.36,4.73-.52,7.12h8.67C276.2,116.24,277.33,72.62,275.57,29.19Z" transform="translate(0 -10.79)"/><path class="cls-40" d="M174.37,86c-1.48-17.28-3.74-37.7-19.06-60.89a81.47,81.47,0,0,1,7.75,17.6c3.1,10.43,4.13,24.27,4.75,39.61.69,17.27-.45,33.54-1.87,49.47-.93,10.45-2.24,21.16-3,32.29l8.42,6.91c.78-8.83,1.92-20.14,3.25-32.8C176.28,122,175.93,104.12,174.37,86Z" transform="translate(0 -10.79)"/><path class="cls-41" d="M361.1,52.58c-6.92,35.74-14.11,71.17-23.37,106.53h9.08c1.16-3.92,2.37-8.05,3.56-12.34C358.79,116.26,361.84,84.13,361.1,52.58Z" transform="translate(0 -10.79)"/><path class="cls-42" d="M373.16,83.62c-.18,1-4.72,13.94-9.39,32.36-2.44,9.57-5.24,20.62-8.45,32.1a77.77,77.77,0,0,0-2.78,11H362c.67-3.24,1.38-6.66,2.34-10.19C370.16,127.58,372.23,105.45,373.16,83.62Z" transform="translate(0 -10.79)"/><path class="cls-43" d="M275.21,56.82s-4.09,14.65-8.49,35.87c-4.84,22.07-8.14,44.32-12.69,66.42l12.47.91c2-10.09,4.18-25.39,4.5-28C274.39,107.51,274.9,81.33,275.21,56.82Z" transform="translate(0 -10.79)"/><path class="cls-44" d="M194.68,158.79h9.65c-4.12-32.31-6.55-64.67-11.74-96.95C187.57,94.11,189.85,126.53,194.68,158.79Z" transform="translate(0 -10.79)"/><path class="cls-45" d="M147.46,45.45c-1.56-4.35-.7-.28-1,2.27.37,2.24,0,5.37.38,9.54.8,8.32,1.35,20.17,2.2,34,.93,15.49,1.9,31.12,2.22,46.44.13,5.92.16,12.16.18,18.27l9.29,2.34c.06-5.61.06-11.75-.1-18.16C159.91,109.23,154.31,77.35,147.46,45.45Z" transform="translate(0 -10.79)"/><path class="cls-46" d="M251.35,132.81c-2.1-14.77-4-28.95-5.4-41.23a344.86,344.86,0,0,1-2-41.9c-7.47,27.76-5.3,56.63-1.8,84.61a216.76,216.76,0,0,0,3.16,25.88h9.49c-.26-1.6-.51-3.21-.74-4.84C253,148,252.44,140.52,251.35,132.81Z" transform="translate(0 -10.79)"/><path class="cls-47" d="M359.5,87.68c4.06-17.79,7.86-35.74,11-53.73-14.87,41.46-27.83,83.46-38.77,125.71h9.54c1.79-6.27,3.62-12.77,5.09-19.16C350.93,122.93,355.47,105.27,359.5,87.68Z" transform="translate(0 -10.79)"/><path class="cls-48" d="M124.24,48.4a422.93,422.93,0,0,1,6.4,48.69c1.28,15.92,1.24,32.3,1.71,48.25.12,4.39.43,9,.7,13.55l9.48.59c-.22-4.31-.51-8.81-.84-13.43C141,113.44,138,79.76,124.24,48.4Z" transform="translate(0 -10.79)"/><path class="cls-49" d="M130,97.06c-1.18-17.67-2.35-35.42-4-53.09-3.69,35.58-9.82,70.57-8.6,105.93q.18,5.17.27,10l15.56,2.7c0-4.47-.13-8.87-.5-13C132,132.05,131.16,114.52,130,97.06Z" transform="translate(0 -10.79)"/><path class="cls-50" d="M235.39,140.52c1.44-13.41-4.85-30.33-5.9-43.7-1.06-13.68-1-27.62-12.71-40.71,12.46,27,6.89,54,3.09,81.18a92.78,92.78,0,0,0-.58,22.88h9.41c0-.27,0-.53-.07-.79C228.08,152.24,234.59,147.82,235.39,140.52Z" transform="translate(0 -10.79)"/><path class="cls-51" d="M351.5,77c3.77-20.26,7.61-40.52,11.13-60.82A1054.53,1054.53,0,0,0,331,136.24c-1.71,8.37-3.54,16.34-5.11,23.42h9.44c1.72-7.58,3.47-15.41,4.81-22.62C343.83,117.11,347.77,97,351.5,77Z" transform="translate(0 -10.79)"/><path class="cls-52" d="M218.94,148.06c.35,4.1.75,8.09,1.14,11.71h9.32C224.58,125,218.91,90.15,213.63,54.89,213.07,86.2,215.39,116.91,218.94,148.06Z" transform="translate(0 -10.79)"/><path class="cls-53" d="M291.74,15.39a912.61,912.61,0,0,0-11.4,104.13c-.88,15.67-1.25,29.51-1.44,39.59h9.6C290.77,111.34,294,63.13,291.74,15.39Z" transform="translate(0 -10.79)"/><path class="cls-54" d="M236.64,76.12c-2.74-11.13-8.31-22.7-14.78-32.61q1.09,6.3,1.79,12.8a144.12,144.12,0,0,1,6,21.34c5.46,27.46,6.62,55.49,7.71,83.35h9.33c-.18-8.49-.54-18.24-1.24-28.78A326.18,326.18,0,0,0,236.64,76.12Z" transform="translate(0 -10.79)"/><path class="cls-55" d="M260.63,157.77c.25-8.13.46-16.25.76-24.11.55-14.57,1-29.22,2.75-43.81a146.9,146.9,0,0,1,6.95-31.43,26.67,26.67,0,0,1,7.4-10.89c-14.78,12.52-17.32,27-21.48,41.56a346.54,346.54,0,0,0-5.16,44.72c-.46,9.85-.55,19.11-.67,26.56h9.43C260.64,159.48,260.65,158.6,260.63,157.77Z" transform="translate(0 -10.79)"/><path class="cls-56" d="M250.91,55.4c-1.36,21.71-.3,43.49,1.42,65.18.74,11.8-5.23,34.13-4.43,39.12h10.16c-2.83-19.08.94-52.79-2.29-71.84C252.84,68.88,250.91,55.4,250.91,55.4Z" transform="translate(0 -10.79)"/><path class="cls-57" d="M202.72,51.06c-8.26,28.8-1.35,58.84,7,87.31,2.2,7.49,4.13,14.4,5.78,20.52h9.39c-5.81-21.51-12.54-43-17.38-64.51A185,185,0,0,1,202.72,51.06Z" transform="translate(0 -10.79)"/><path class="cls-58" d="M359.68,97.32C364,79.53,369,61.61,375.16,44,356,77.38,346.71,114.36,339.71,150.48c-.65,2.73-1.28,5.44-1.89,8.09H347c.6-2.66,1.17-5.29,1.68-7.86C352.26,133,355.39,114.87,359.68,97.32Z" transform="translate(0 -10.79)"/><path class="cls-59" d="M217.52,68A147.17,147.17,0,0,0,199,45.2a59,59,0,0,0-11.46-9.31,18.82,18.82,0,0,0-6-2.5c.21.51.37.89.48,1.19a7.92,7.92,0,0,1,.86.45,24.7,24.7,0,0,1,5.33,3.73c7.34,6.64,16.29,18.49,24,32.23,14.67,26.18,17.56,54.46,18.32,82.47l8.46,1.11a199.46,199.46,0,0,0-2.44-35.27C233.68,101.76,228,84.06,217.52,68Z" transform="translate(0 -10.79)"/><path class="cls-60" d="M109.6,36.1C103,79.46,91.22,122.18,77.48,164.45l9.64-.89c1.15-3.25,10.12-1.69,10.68-5.31C101.75,132.57,105,86.46,109.6,36.1Z" transform="translate(0 -10.79)"/><path class="cls-61" d="M80.85,64.23c-.12,0-4.07,18.32-11.84,44.1-3.9,12.89-8.64,27.77-13.64,43.28-.94,2.91-1.9,5.85-2.87,8.79h9.42q1-3.22,2-6.6C72.44,124.06,78.61,94.9,80.85,64.23Z" transform="translate(0 -10.79)"/><path class="cls-62" d="M29.7,54.79C26,68.89,22.94,83.08,20.09,97.22c-2.8,14-6,28-9.29,41.93-1.6,6.76-3.38,13.75-5.14,20.7h9.48c1.6-5.86,3.33-12.52,4.8-19.61A498.4,498.4,0,0,0,29.7,54.79Z" transform="translate(0 -10.79)"/><path class="cls-63" d="M45.46,61.07c2.93,28-7.32,69.7-18.42,97.25h13.6C51.4,130.82,58.21,88.35,45.46,61.07Z" transform="translate(0 -10.79)"/><path class="cls-64" d="M92.8,134.55c-3,10.12-6.68,22.08-10,34.69-.27,1-.53,2-.8,3.06L91.2,171c5.54-23.32,12.08-47.62,8.68-71.55A197.71,197.71,0,0,1,92.8,134.55Z" transform="translate(0 -10.79)"/><path class="cls-65" d="M68.79,81.36c-.14,1-3.46,14.49-6.9,33.64-1.78,10-3.83,21.44-6.18,33.38a107,107,0,0,0-2,11.47H60.6c.5-3.37,1-6.92,1.73-10.6C66.59,127.07,68.1,104.05,68.79,81.36Z" transform="translate(0 -10.79)"/><path class="cls-66" d="M48.24,100.18c3.12-14.14,6-28.41,8.41-42.72-11.42,33-21.36,66.35-29.76,99.94h7.32c1.38-5,2.78-10.16,3.9-15.23C41.65,128.2,45.15,114.16,48.24,100.18Z" transform="translate(0 -10.79)"/><path class="cls-67" d="M101.09,130.26c-.66,8.81-5.66,19.33-5.93,26.67l11.61,6c2.39-42.23,9.32-95.68,13.87-137.84C109.64,59.18,103.74,95.25,101.09,130.26Z" transform="translate(0 -10.79)"/><path class="cls-68" d="M34.07,77.06C35.83,56.54,37.66,36,39.16,15.44A1054.75,1054.75,0,0,0,19.47,138.05c-.87,8.51-8.6,16.76-9.47,24l16.08-1.09c1-7.71,1.94-15.67,2.58-23C30.4,117.74,32.34,97.35,34.07,77.06Z" transform="translate(0 -10.79)"/><path class="cls-69" d="M44.43,87.81c-.3,5.08-2.52,19-6.53,36.36-2.06,10.43-5,21.89-8,34h8.46C43,135.15,46.58,111.54,44.43,87.81Z" transform="translate(0 -10.79)"/><path class="cls-70" d="M149.58,137.71c-.24,6.58-.51,13.41-.81,20.35l10.48-4c-.49-41-2.78-82.77-7.29-124.77C151.78,29.16,151.9,74.44,149.58,137.71Z" transform="translate(0 -10.79)"/><path class="cls-71" d="M166.56,145c0-16.07-.45-31.3-1.54-44.28-2.16-26-5.54-43.44-5.54-43.44-4.85,31.47-5.82,61.91-6.74,92.28-.15,4.93-.22,9.61-.28,14l14-4.82C166.52,154,166.56,149.47,166.56,145Z" transform="translate(0 -10.79)"/><path class="cls-72" d="M189.31,37.15c-.18,0,3.62,21.85,5.13,53.51.77,15.82,1.08,34.12,1,53.25.15,5,0,10-.26,15.14l9-3.05c.08-3.8.1-7.75,0-11.78C203.53,108.46,200.34,71,189.31,37.15Z" transform="translate(0 -10.79)"/><path class="cls-73" d="M178.81,27.76c.35,18.33,1.4,36.54,2.62,54.63,1.21,17.87,2.06,36,2.78,53.94.35,8.72.6,17.79.85,26.81l9.13-3.09c-.11-7.64-.3-16.28-.87-25.38A779.51,779.51,0,0,0,178.81,27.76Z" transform="translate(0 -10.79)"/><path class="cls-74" d="M186.39,42c-.2,0-2.51,24-6.69,58.49-2.08,17.23-4.69,37.19-7.47,57.91-.27,2-.52,4-.79,6l13.65-1.87c.16-1.47.33-2.95.5-4.44C190,119.41,191.56,80,186.39,42Z" transform="translate(0 -10.79)"/><path class="cls-75" d="M215.24,81.8c0-18.45-.36-37-1.36-55.32-5.13,44.78-8.29,89.45-9.44,133.71l9.19-3.11c.33-6.62.64-13.48.64-20.1C214.81,118.55,215.27,100.05,215.24,81.8Z" transform="translate(0 -10.79)"/><path class="cls-76" d="M205.5,73c-.87-20.72-1.66-41.49-2.78-62.2a1101.4,1101.4,0,0,0-3.86,126c.22,8.63.23,16.89.28,24.22l9.09-3.07c0-7.85-.08-16-.38-23.36C207,114.14,206.35,93.5,205.5,73Z" transform="translate(0 -10.79)"/><path class="cls-77" d="M172.52,30c-2.22,46.3,2.65,89.55,1.57,135.66l4.82.49C180.66,120.1,179.92,74.31,172.52,30Z" transform="translate(0 -10.79)"/><path class="cls-78" d="M92,68a798,798,0,0,0-36.2,91.18L55,161.56,70.5,162c4.74-15.72,3.18-31.86,8.11-47.52C87.16,87.3,92,68,92,68Z" transform="translate(0 -10.79)"/><path class="cls-79" d="M130,37.26C113.66,77.88,106.74,123,100.06,166.6l18.54-6.83c2.92-21.06-2.12-31.63.38-49.13C124.81,69.86,126.1,48,130,37.26Z" transform="translate(0 -10.79)"/><path class="cls-80" d="M45.39,34.74c-6.93,35.73-10.2,89.75-19.47,125.11h6c1.17-3.92,2.38-8.06,3.56-12.35C43.92,117,46.12,66.28,45.39,34.74Z" transform="translate(0 -10.79)"/><path class="cls-81" d="M239.3,149.14c-2.05-19.43-1.26-9.08-3-29.76-1.45-17.79-2-30.36-2.11-30.35-2.58,26.21-2.47,37.93-.37,61.18.29,3.24.62,6.26.93,8.9h5.7C240.1,155.9,239.66,152.6,239.3,149.14Z" transform="translate(0 -10.79)"/><path class="cls-82" d="M187.25,44.85c-8.61,43.92-15,78.34-21.79,115.92H169c2.59-15.13,5.12-30.37,7.57-45.59C180.26,92.11,183.89,68.64,187.25,44.85Z" transform="translate(0 -10.79)"/><path class="cls-83" d="M158,163l9.06-4.4c1.54-32.13,2.42-64.36,2.18-96.62C164.15,95.23,160.79,129.06,158,163Z" transform="translate(0 -10.79)"/><path class="cls-84" d="M323.72,69.51c-.16,0-4.18,25.9-10,48.23-2.9,11.17-6.41,24.08-10.11,37.48-.36,1.28-.71,2.59-1.06,3.89h10.84c.25-1,.48-1.9.73-2.87C320.39,131.14,325,95,323.72,69.51Z" transform="translate(0 -10.79)"/><path class="cls-85" d="M290.4,164.13l8.23-3.2c2.71-36.38,4.44-66,5.13-90.6C299.24,94.88,295.08,125.56,290.4,164.13Z" transform="translate(0 -10.79)"/><path class="cls-86" d="M255.85,160.87l6.77-.38c3.71-26.79,8.7-86,10.18-106.69C268.53,73.9,261.41,133.23,255.85,160.87Z" transform="translate(0 -10.79)"/><path class="cls-87" d="M308.83,55.58c-.23,26.73-.25,60.82-.11,105.14h3.06c-.36-18.72-.73-35.6-1.14-50.81C310.11,89.54,309.53,71.54,308.83,55.58Z" transform="translate(0 -10.79)"/><path class="cls-88" d="M274.8,162.87l6.39-.37c8-46.59,13.69-82.36,18.08-110.61C292,79.14,284.31,115.08,274.8,162.87Z" transform="translate(0 -10.79)"/><path class="cls-89" d="M298.53,160.63l6.77-.3C309,139.67,314,94,315.48,78,311.21,93.54,304.1,139.31,298.53,160.63Z" transform="translate(0 -10.79)"/><path class="cls-90" d="M315.48,162.17l6.39-.28c8-35.94,13.69-63.54,18.08-85.32C332.63,97.58,325,125.31,315.48,162.17Z" transform="translate(0 -10.79)"/><path class="cls-91" d="M269.33,161.82l8.24-2.46c2.7-28.07,4.44-50.91,5.12-69.89C278.17,108.41,274,132.08,269.33,161.82Z" transform="translate(0 -10.79)"/><path class="cls-92" d="M233.79,159.31l6.76-.3c3.72-20.66,8.7-66.34,10.18-82.29C246.47,92.22,239.35,138,233.79,159.31Z" transform="translate(0 -10.79)"/><path class="cls-93" d="M287.77,78.09c-.24,20.62-.25,46.92-.12,81.11h3.07c-.37-14.45-.74-27.47-1.14-39.19C289,104.29,288.47,90.4,287.77,78.09Z" transform="translate(0 -10.79)"/><path class="cls-94" d="M22,163.91l8.24-2.46c2.7-28.07,4.43-50.91,5.12-69.88C30.79,110.5,26.62,134.17,22,163.91Z" transform="translate(0 -10.79)"/><path class="cls-95" d="M40.38,80.19c-.24,20.61-.25,46.91-.11,81.1h3.06c-.36-14.45-.74-27.46-1.14-39.19C41.66,106.39,41.08,92.5,40.38,80.19Z" transform="translate(0 -10.79)"/><path class="cls-96" d="M6.35,162.94l6.38-.27c8-35.95,13.7-63.54,18.09-85.33C23.5,98.36,15.86,126.08,6.35,162.94Z" transform="translate(0 -10.79)"/><path class="cls-97" d="M400.36,70.5c.16,0,4.18,25.89,10,48.23,2.9,11.17,6.4,24.08,10.1,37.48.36,1.28.71,2.59,1.06,3.89H410.67q-.36-1.42-.72-2.88C403.69,132.13,399.1,96,400.36,70.5Z" transform="translate(0 -10.79)"/><path class="cls-98" d="M420.25,42.69c.23,30.15.25,68.6.11,118.58H417.3c.36-21.11.74-40.15,1.14-57.3C419,81,419.55,60.69,420.25,42.69Z" transform="translate(0 -10.79)"/><path class="cls-99" d="M400.66,160.24l-8-1.49c-1.3-21.5-1.89-39-1.66-53.61C394.51,119.51,397.48,137.55,400.66,160.24Z" transform="translate(0 -10.79)"/><path class="cls-100" d="M439.73,161.61l-6.77-.29c-3.7-20.67-8.7-66.34-10.18-82.29C427.05,94.53,434.17,140.29,439.73,161.61Z" transform="translate(0 -10.79)"/><path class="cls-101" d="M414.78,163.15l-6.38-.27c-8-35.95-13.7-63.54-18.09-85.33C397.63,98.57,405.27,126.3,414.78,163.15Z" transform="translate(0 -10.79)"/><path class="cls-102" d="M19.9,59.32c-.12,0-2.62,19.76-6.69,48.08-2,14.16-4.49,30.53-7.09,47.51-.24,1.63-.49,3.29-.74,4.94H13c.17-1.21.34-2.42.51-3.65C17.87,124.39,20.78,91.68,19.9,59.32Z" transform="translate(0 -10.79)"/><path class="cls-103" d="M340.36,176.41c5.63-13.6,8.47-27,7.4-39.63-.81-9.52-8.4-26.8-8.28-26.66a10.34,10.34,0,0,1-3.9-2.33c-2.5-2.17-7.07-4.08-10.08-5.33A27.61,27.61,0,0,0,309.08,101c-7.56,1.56-12.29,6.13-14.38,11.2-2.81,6.83-1,14.7,5.1,17.25a10.2,10.2,0,0,0,2.12.61c3.36.63,5.51-.46,6.23-2.28a5.53,5.53,0,0,0-2.68-6.71,3.39,3.39,0,0,0-3.8,1l1,1a2,2,0,0,1,2.28-.66,3.64,3.64,0,0,1,1.79,2,3.86,3.86,0,0,1,.14,2.84c-.47,1.07-1.62,2-4.71,1.45a8.56,8.56,0,0,1-1.82-.53,8.92,8.92,0,0,1-5.08-6.11,14.53,14.53,0,0,1,.73-9.32c1.94-4.66,6.23-8.89,13.37-10.37a26.16,26.16,0,0,1,15.6,1.37c11.9,4.91,20.18,18.5,21.42,33.14,1,12.37-1.74,25.53-7.31,39Z" transform="translate(0 -10.79)"/><path class="cls-104" d="M338.55,110.94a20.08,20.08,0,0,1-2.85-5.37c-1.55-3.65-2.16-7.29-.75-10.72a11,11,0,0,1,4.09-5,8.79,8.79,0,0,1,8.35-.75,8.08,8.08,0,0,1,4,3.46,6,6,0,0,1,.26,5.38,8.36,8.36,0,0,1-.69,1.32,3.05,3.05,0,0,1-3.89,1.12,4,4,0,0,1-2.38-5,4.77,4.77,0,0,1,.44-.79h0l1,.71a2.74,2.74,0,0,0-.3.55,2.26,2.26,0,0,0,.14,2,3.21,3.21,0,0,0,1.57,1.41,1.78,1.78,0,0,0,2.36-.65,6.38,6.38,0,0,0,.59-1.12c1.3-3.14-.62-5.94-3.62-7.22a7.56,7.56,0,0,0-7.17.63,10,10,0,0,0-3.65,4.44c-1.83,4.38-.46,10.12,3,14.37.13.14.24.29.36.43Z" transform="translate(0 -10.79)"/><path class="cls-105" d="M203.24,173.93c.62-3.13,1.12-6.27,1.55-9.5,4-30.7-3.22-51.84-12.48-66.18C173.83,69.5,143.48,68,143.48,68s29,2,47,31c9,14.45,15.92,35.68,11.35,66.34-.43,2.83-.81,5.58-1.23,8.3Z" transform="translate(0 -10.79)"/><path class="cls-106" d="M204.13,109.56c.35,3.68.22,7.4-2.18,10.26.46.26-.15.4.31.69a14.71,14.71,0,0,0,3.47-10.93C205.18,109.56,204.66,109.55,204.13,109.56Z" transform="translate(0 -10.79)"/><path class="cls-107" d="M206.06,71.94c1.34,1.65,9.18,11.57,10.64,21.27,1.8,11.89-4.07,21.6-12.43,21.37l-.05,0C213.91,98.7,213,92.79,206.06,71.94Z" transform="translate(0 -10.79)"/><path class="cls-108" d="M204.22,114.55c-5.42-.22-10.61-13.58-5.9-22.65,6.47-12.5,7.55-20.2,7.55-20.2a2.71,2.71,0,0,0,.19.24C213,92.79,213.91,98.7,204.22,114.55Z" transform="translate(0 -10.79)"/><path class="cls-109" d="M197.28,134.63a10.09,10.09,0,0,1,5.81,5c.37-.17.2-.75.61-.92-1.65-2.73-2.49-3.7-5.85-5C197.64,134,197.47,134.35,197.28,134.63Z" transform="translate(0 -10.79)"/><path class="cls-110" d="M167.29,119.13c1.82-.17,12.52-1,20.9,1.79,10.28,3.49,16.23,10.68,13.22,15.57,0,0,0,0,0,0C191.73,124.68,186.62,123,167.29,119.13Z" transform="translate(0 -10.79)"/><path class="cls-111" d="M201.39,136.51c-2,3.12-14.64,1.11-20.42-5.15-8-8.64-13.94-12.22-13.94-12.22h.26C186.62,123,191.73,124.68,201.39,136.51Z" transform="translate(0 -10.79)"/><path class="cls-112" d="M434.14,159.91l10.83-.59c1.55-9.11,3.84-18.44,5-27.41V69.26C444.7,99.48,438.2,129.7,434.14,159.91Z" transform="translate(0 -10.79)"/><path class="cls-113" d="M447,112.57c-1.29,12.29-2.93,26.51-4.69,41.27-.17,1.42-.33,2.85-.5,4.29L450,157V81.56C449.33,88.94,448.32,99.72,447,112.57Z" transform="translate(0 -10.79)"/><path class="cls-114" d="M9.7,134.33A785.63,785.63,0,0,0,19.46,26.62C15.73,44.4,12.7,62.28,9.86,80.11c-2.81,17.6-6,35.32-9.3,52.84-.13.72-.28,1.47-.42,2.19v23.91H4.9C6.5,151.67,8.24,143.27,9.7,134.33Z" transform="translate(0 -10.79)"/><path class="cls-115" d="M7.14,26.07C4.64,38.22,2.2,57.64,0,69.81V118C4.56,87.41,7.48,56.74,7.14,26.07Z" transform="translate(0 -10.79)"/><path class="cls-116" d="M13.05,72.49c-5.44,15.63-8,36-12.91,60.6L0,159.59l3.36-.2C11.34,123.45,8.66,94.27,13.05,72.49Z" transform="translate(0 -10.79)"/><path class="cls-117" d="M6.6,59.08c-.11,0-2.67,19-6.6,46.5v50.74C0,156.2,7.48,91.45,6.6,59.08Z" transform="translate(0 -10.79)"/><path class="cls-118" d="M143.76,159.17c-.32-7.12-1-16.42-1.95-22.57-2.71-18.23-7.23-32.81-12.47-44.47a18.23,18.23,0,0,0,.65-6.35c5.24-1.53,6.63-11.71,2.65-23.08-3.37-9.69-6.65-12.33-8-13.85l-.2-.21a50.25,50.25,0,0,1-1.31,17.09c-1.65,7.17,1.82,19.73,5.68,20.18a17.46,17.46,0,0,1-.33,4.37A115.41,115.41,0,0,0,117,70.75,77.65,77.65,0,0,0,106.94,59.4a12.29,12.29,0,0,0-.28-3.45c2.93-.54,2.75-6.81-.66-14.28-2.92-6.36-6.69-8.43-7.63-9.5-.09-.11.52,2.84.52,2.84a93.94,93.94,0,0,1,.76,9.63c.31,5.84,4,10.69,6.34,11.32a11.85,11.85,0,0,1,.23,2.78C93.58,47,90.85,49.92,90.85,49.92s6.9-2.64,25.09,21.83c.93,1.27,1.85,2.65,2.78,4.08a7.26,7.26,0,0,0-1.88-.57c-1-4.73-6.71-7.46-12.84-5.82-5.22,1.41-10,6.72-10.76,7.64l-.13.12s4.37.24,11.88,3.54c5.25,2.31,11.86-1.23,12-4.46a7.85,7.85,0,0,1,2.79,1.19,133,133,0,0,1,15.09,35.16,14.79,14.79,0,0,0-2.27-2c.28-5.2-5.41-11.33-13-13.56-6.49-1.88-13.69.29-14.89.69l-.19,0s5,2.94,12.63,10.77c5.35,5.48,14.13,6.17,15.3,3.14a14.18,14.18,0,0,1,3,3.13A191.61,191.61,0,0,1,140,137.91c.78,5.75,1.88,13.87,2.41,20.49Z" transform="translate(0 -10.79)"/><path class="cls-119" d="M136.54,50.57c2,17.57.65,33.36-1,51.92-1.74,18.87-3.86,40.26-7,59.52-.63,3.85,14.61,3.12,15,.51C149.26,124.72,145.57,84.07,136.54,50.57Z" transform="translate(0 -10.79)"/><path class="cls-120" d="M114,162.23l-6.29-1.09c-3.36-36.67-5.51-64.76-7.09-86.93C105.2,96,109.25,124.46,114,162.23Z" transform="translate(0 -10.79)"/><path class="cls-121" d="M125.1,161.49l7.57-2.59c.71-23.16.68-46.56-.57-70.25C129.59,112.83,127.31,137.14,125.1,161.49Z" transform="translate(0 -10.79)"/></g></g></g></svg>